# xmcd
#
# Track frame offsets:
#	150
#	26839
#	50777
#	70925
#	92320
#	107474
#	127657
#	156039
#	177323
#	200815
#	222775
#	241705
#	266838
#
# Disc length: 3773 seconds
#
# Revision: 1
# Processed by: cddbd v1.5.2PL0 Copyright (c) Steve Scherf et al.
# Submitted via: audiograbber 1.83.01
#
DISCID=af0ebb0d
DTITLE=Keith Urban - Love, Pain and The Whole Crazy Thing
DYEAR=2006
DGENRE=Country
TTITLE0=Once In A Lifetime
TTITLE1=Shine
TTITLE2=I Told You So
TTITLE3=I Can't Stop Loving You
TTITLE4=Won't Let You Down
TTITLE5=Faster Car
TTITLE6=Stupid Boy
TTITLE7=Used To The Pain
TTITLE8=Raise The Barn
TTITLE9=God Made Woman
TTITLE10=Tu Compania
TTITLE11=Everybody
TTITLE12=Got It Right This Time
EXTD=
EXTT0=
EXTT1=
EXTT2=
EXTT3=
EXTT4=
EXTT5=
EXTT6=
EXTT7=
EXTT8=
EXTT9=
EXTT10=
EXTT11=
EXTT12=
PLAYORDER=
